<?xml version="1.0" encoding="UTF-8"?>
<svg width="24px" height="24px" viewBox="0 0 24 24" version="1.1" xmlns="http://www.w3.org/2000/svg" xmlns:xlink="http://www.w3.org/1999/xlink">
    <title>icn-mx6</title>
    <g id="页面-1" stroke="none" stroke-width="1" fill="none" fill-rule="evenodd">
        <g id="图标切图" transform="translate(-40.000000, -588.000000)">
            <g id="icn-mx6" transform="translate(40.000000, 588.000000)">
                <rect id="矩形" x="0" y="0" width="24" height="24"></rect>
                <path d="M5.1123095,3.77653604 L11.6551982,6.68877197 L11.6556924,15.4907552 C11.6556924,15.6740726 11.8043005,15.8226807 11.9876179,15.8226807 C12.1709353,15.8226807 12.3195434,15.6740726 12.3195434,15.4907552 L12.3195434,15.4907552 L12.3191982,6.80577197 L19.1123095,3.83453604 L19.1123095,20.2895043 C19.1123095,20.802646 18.8019616,21.2648236 18.3269875,21.4590247 L12.6799922,23.7678934 C12.3161555,23.9166541 11.9084635,23.9166541 11.5446268,23.7678934 L5.89763148,21.4590247 C5.42265742,21.2648236 5.1123095,20.802646 5.1123095,20.2895043 L5.1123095,3.77653604 Z M12.6799922,0.232106573 L18.3269875,2.54097529 C18.6311564,2.66533981 18.867812,2.89960145 18.9986845,3.18676756 L12.1261488,6.19228745 C12.0839875,6.17289792 12.0370654,6.1620855 11.9876179,6.1620855 L11.9876179,6.1620855 L12.0365705,6.16733163 C12.0182343,6.1531315 11.9979153,6.14088496 11.9757826,6.13103282 L11.9757826,6.13103282 L5.25268368,3.13831726 C5.25203332,3.13802775 5.25138251,3.13774038 5.25073126,3.13745514 C5.38478288,2.87251578 5.61129201,2.65804998 5.89763148,2.54097529 L11.5446268,0.232106573 C11.9084635,0.0833458666 12.3161555,0.0833458666 12.6799922,0.232106573 Z" id="形状结合" fill="#8D8D8D"></path>
            </g>
        </g>
    </g>
</svg>