<?xml version="1.0" encoding="UTF-8"?>
<svg width="24px" height="24px" viewBox="0 0 24 24" version="1.1" xmlns="http://www.w3.org/2000/svg" xmlns:xlink="http://www.w3.org/1999/xlink">
    <title>icn-qitacs</title>
    <g id="页面-1" stroke="none" stroke-width="1" fill="none" fill-rule="evenodd">
        <g id="图标切图" transform="translate(-74.000000, -557.000000)">
            <g id="icn-qitacs" transform="translate(74.000000, 557.000000)">
                <rect id="矩形" x="0" y="0" width="24" height="24"></rect>
                <g transform="translate(4.000000, 3.000000)" fill="#FFFFFF" id="形状结合">
                    <path d="M16,5.418 L16,17.065 C16,17.5813862 15.5813862,18 15.065,18 L0.93510782,18 C0.418721578,18 0.000107819551,17.5813862 0.000107819551,17.065 L0,5.418 L16,5.418 Z M8.00005391,14.6059666 C7.50913744,14.6059666 7.11117101,15.0250177 7.11117101,15.5419435 C7.11117101,16.0588692 7.50913744,16.4779203 8.00005391,16.4779203 C8.49097038,16.4779203 8.88893681,16.0588692 8.88893681,15.5419435 C8.88893681,15.0250177 8.49097038,14.6059666 8.00005391,14.6059666 Z M13.9767716,0 C14.3970197,-1.15677581e-15 14.7656346,0.280379046 14.8778328,0.685372906 L15.956,4.576 L0.065,4.576 L1.15536565,0.682852254 C1.26843491,0.279109077 1.63644775,7.70199367e-17 2.05572475,0 L13.9767716,0 Z"></path>
                </g>
            </g>
        </g>
    </g>
</svg>