<?xml version="1.0" encoding="UTF-8"?>
<svg width="24px" height="24px" viewBox="0 0 24 24" version="1.1" xmlns="http://www.w3.org/2000/svg" xmlns:xlink="http://www.w3.org/1999/xlink">
    <title>icn-qitacsh</title>
    <g id="页面-1" stroke="none" stroke-width="1" fill="none" fill-rule="evenodd">
        <g id="图标切图" transform="translate(-74.000000, -588.000000)">
            <g id="icn-qitacs" transform="translate(74.000000, 588.000000)">
                <rect id="矩形" x="0" y="0" width="24" height="24"></rect>
                <path d="M20,8.418 L20,20.0837 C20,20.5897585 19.5897585,21 19.0837,21 L4.91640782,21 C4.4103493,21 4.00010782,20.5897585 4.00010782,20.0837 L4,8.418 L20,8.418 Z M12.0000539,17.6059666 C11.5091374,17.6059666 11.111171,18.0250177 11.111171,18.5419435 C11.111171,19.0588692 11.5091374,19.4779203 12.0000539,19.4779203 C12.4909704,19.4779203 12.8889368,19.0588692 12.8889368,18.5419435 C12.8889368,18.0250177 12.4909704,17.6059666 12.0000539,17.6059666 Z M17.9909953,3 C18.4028385,3 18.7640811,3.27477147 18.8740353,3.67166545 L19.956,7.576 L4.065,7.576 L5.15919034,3.66919521 C5.26999821,3.2735269 5.63065079,3 6.04154226,3 L17.9909953,3 Z" id="形状结合" fill="#8D8D8D"></path>
            </g>
        </g>
    </g>
</svg>