<?xml version="1.0" encoding="UTF-8"?>
<svg width="204px" height="206px" viewBox="0 0 204 206" version="1.1" xmlns="http://www.w3.org/2000/svg" xmlns:xlink="http://www.w3.org/1999/xlink">
    <title>chahua-jz3</title>
    <g id="页面-1" stroke="none" stroke-width="1" fill="none" fill-rule="evenodd">
        <g id="7.1.1家长控制-图文介绍" transform="translate(-952.000000, -256.000000)">
            <g id="chahua-jz3" transform="translate(952.000000, 256.000000)">
                <g id="编组-11" transform="translate(6.000000, 24.000000)">
                    <path d="M116.664091,155.271984 C149.092468,148.701244 115.866546,126.442215 151.352529,109.423103 C157.252718,106.593367 162.312908,102.781127 166.494084,98.3730981 C187.460089,76.2695635 186.324117,39.1855017 158.1668,35.8784945 C124.39417,31.9119828 126.559632,12.0984484 102.964191,12.0984484 C82.5056938,12.0984484 35.9005403,10.331981 26.0532551,31.6407747 C13.848047,58.0519385 13.8338601,83.6891487 18.8029803,96.5561259 C23.7721005,109.423103 33.9858183,127.901393 47.9249771,139.405937 C73.4527246,160.475005 84.2357148,161.842724 116.664091,155.271984 Z" id="椭圆形" fill="#FFFBF8" transform="translate(98.306839, 85.411840) scale(-1, -1) rotate(9.000000) translate(-98.306839, -85.411840) "></path>
                    <g id="人" transform="translate(78.426560, 36.076854)">
                        <polygon id="路径-14" fill="#F1F1F1" points="1.92672 27.3526231 30.5096075 8.44768 50.37216 45.201785 26.7279306 60.20064"></polygon>
                        <polygon id="路径-17" fill="#FFA458" points="32.08352 54.6945282 71.7127697 96.97248 79.55616 96.97248 53.9952025 41.71744"></polygon>
                        <ellipse id="椭圆形" fill="#FF801F" transform="translate(10.487360, 10.198720) rotate(-45.000000) translate(-10.487360, -10.198720) " cx="10.48736" cy="10.19872" rx="4.47488" ry="6.61504"></ellipse>
                        <path d="M30.33248,8.46497645 L59.8818995,7.5192277 C60.4188871,7.50204106 60.8681341,7.92342302 60.8853208,8.46041066 C60.8889298,8.57317373 60.8728959,8.68570515 60.837936,8.79297275 L52.8974389,33.1568 L52.8974389,33.1568 L46.9376048,31.7698142 L49.7447553,16.6125016 L35.1516503,19.4945252 L30.33248,8.46497645 Z" id="路径-16" fill="#F1F1F1"></path>
                        <polygon id="路径-20" fill="#4D4D4D" transform="translate(72.897112, 102.190425) rotate(-12.000000) translate(-72.897112, -102.190425) " points="74.5048479 99.5638651 65.4652546 102.769237 65.4652546 104.816985 80.3289685 104.816985 80.3289685 99.5638651"></polygon>
                        <path d="M12.8247761,7.76411798 C13.5520577,6.41469896 13.2527364,5.27765684 11.9268124,4.35299162 C9.93792629,2.9659938 7.64789189,2.17487538 6.61053369,4.35299162 C5.98491043,5.66659787 3.68393526,7.00610115 2.86020054,7.76411798 C2.03646582,8.52213481 1.93749213,9.69928658 2.38487606,10.627439 C2.68313201,11.2462072 3.49388471,11.6187605 4.81713414,11.745099 C5.45371281,11.8152962 6.22682822,11.5196166 7.13648035,10.8580602 C8.50095856,9.86572558 8.79095858,9.34030773 9.54361738,8.09265686 C10.0453899,7.26088962 11.1391095,7.15137666 12.8247761,7.76411798 Z" id="路径-12" fill="#333333" transform="translate(7.666240, 7.377600) scale(-1, 1) rotate(57.000000) translate(-7.666240, -7.377600) "></path>
                    </g>
                    <g id="编组" transform="translate(0.000000, 69.817334)">
                        <polygon id="矩形" fill="#FFDFC6" points="52.7754743 2.01954867 151.331098 -4.97675501e-14 141.328821 70.969597 42.2413056 73.1117727"></polygon>
                        <polygon id="矩形" fill="#FFEFE2" points="54.7516862 4.70439677 148.206781 2.62338553 138.684503 68.5848734 45.4461284 70.1608094"></polygon>
                        <polygon id="矩形" fill="#FFD0AB" points="42.2413056 72.8587489 141.024552 70.969597 102.693735 77.187327 7.99640121e-15 78.9456137"></polygon>
                        <polygon id="矩形" fill="#FFA458" points="0.741657581 78.7968 102.693735 77.187327 102.693735 78.7968 0.741657581 80.54784"></polygon>
                        <polygon id="路径-13" fill="#FFA458" points="102.693735 77.187327 102.693735 78.7968 141.024552 72.3553131 141.024552 70.969597"></polygon>
                        <polygon id="矩形" fill="#FFFFFF" points="65.4229548 9.55995821 136.51977 8.12406441 135.814338 13.4037671 64.6692483 14.7790878"></polygon>
                        <polygon id="矩形" fill="#FFFFFF" points="64.1765997 17.7206671 96.093437 17.1953551 89.1560643 66.0729152 57.3002496 66.5982272"></polygon>
                        <polygon id="矩形" fill="#FFFFFF" points="98.7454687 17.0902216 135.261016 16.3898056 134.183792 24.2694856 97.612989 24.9699016"></polygon>
                        <polygon id="矩形" fill="#FFFFFF" points="97.3807244 27.306846 133.943385 26.60643 132.775684 34.3680371 96.2952448 35.195904"></polygon>
                        <polygon id="矩形" fill="#FFFFFF" points="92.2727496 63.1425736 128.774718 62.4421576 128.423319 65.1973952 91.8274043 65.8978112"></polygon>
                        <polygon id="矩形" fill="#FFFFFF" points="92.8268644 59.1151816 129.357954 58.4147656 129.055526 60.5160136 92.4993359 61.2164296"></polygon>
                        <polygon id="路径-21" fill="#FFA458" points="151.331098 -1.990702e-14 152.466301 -1.990702e-14 141.966493 72.2071611 141.024552 72.3553131 141.024552 70.969597"></polygon>
                    </g>
                    <g id="编组-4" transform="translate(63.426560, 63.396854)">
                        <polygon id="路径-15" fill="#F1F1F1" points="16.9858229 -4.36983782e-13 3.11296 43.7391478 7.95372518 45.33248 27.2384 5.95921337"></polygon>
                        <path d="M3.45046594,44.55424 L-6.30606678e-14,48.3045326 L-6.30606678e-14,50.1527485 L0.662279613,51.8228102 L2.08800134,51.8228102 L3.56013636,52.1754846 C4.18293606,54.7355332 4.87905629,55.878503 5.64849705,55.6043938 C6.80265818,55.19323 5.29704992,52.281483 5.64849705,52.1754846 C5.99994418,52.0694862 6.79369909,53.2204132 7.27841768,52.5213132 C7.76313626,51.8222133 8.38048376,51.491775 8.10216827,49.3140195 C7.9166246,47.8621825 7.33604393,46.5369223 6.36042624,45.3382388 L3.45046594,44.55424 Z" id="路径-22" fill="#FFD0AB"></path>
                        <path d="M61.8480997,5.05856 L58.95168,6.89730925 L61.362177,12.21221 C61.8540511,12.7610833 62.4041707,13.03552 63.0125357,13.03552 C63.6209008,13.03552 64.2345803,12.7610833 64.8535744,12.21221 L66.1504,6.89730925 L65.8202098,5.79454102 L61.8480997,5.05856 Z" id="路径-24" fill="#FFD0AB"></path>
                    </g>
                </g>
                <rect id="矩形" x="0" y="0" width="204" height="206"></rect>
            </g>
        </g>
    </g>
</svg>