<?xml version="1.0" encoding="UTF-8"?>
<svg width="204px" height="206px" viewBox="0 0 204 206" version="1.1" xmlns="http://www.w3.org/2000/svg" xmlns:xlink="http://www.w3.org/1999/xlink">
    <title>chahua-jz1</title>
    <g id="页面-1" stroke="none" stroke-width="1" fill="none" fill-rule="evenodd">
        <g id="7.1.1家长控制-图文介绍" transform="translate(-284.000000, -256.000000)">
            <g id="chahua-jz1" transform="translate(284.000000, 256.000000)">
                <g transform="translate(10.000000, 17.000000)">
                    <path d="M115.189244,163.27502 C146.184292,156.375647 120.19268,143.872215 154.110187,126.001898 C188.027695,108.13158 189.632889,47.4404481 157.353004,43.2755526 C125.073119,39.110657 130.088367,12.4421834 107.535841,12.4421834 C87.9816064,12.4421834 31.0833038,29.5552447 21.882001,50.1947704 C15.028897,65.5670303 4.91556472,77.678239 16.9964834,111.419693 C29.0774022,145.161146 84.194197,170.174393 115.189244,163.27502 Z" id="椭圆形" fill="#FFFBF8" transform="translate(95.979542, 88.433537) rotate(9.000000) translate(-95.979542, -88.433537) "></path>
                    <g id="编组-2" transform="translate(43.847068, 21.917058)">
                        <rect id="矩形" fill="#FFDFC6" x="-3.33955086e-13" y="9.7542144" width="95.7132288" height="118.676275"></rect>
                        <rect id="矩形" fill="#FFEFE2" x="3.2514048" y="12.8024064" width="89.413632" height="112.783104"></rect>
                        <polygon id="矩形" fill="#FFA458" points="24.5887488 2.8449792 47.7770858 2.8449792 71.3276928 2.8449792 71.3276928 14.224896 24.5887488 14.224896"></polygon>
                        <polygon id="矩形" fill="#FFD0AB" points="27.433728 4.064256 47.5974993 4.064256 68.076288 4.064256 68.076288 11.9895552 27.433728 11.9895552"></polygon>
                        <rect id="矩形" fill="#FFDFC6" x="10.5670656" y="24.1823232" width="58.7284992" height="2.6417664"></rect>
                        <rect id="矩形" fill="#FFDFC6" x="74.172672" y="19.7116416" width="13.0056192" height="12.192768"></rect>
                        <rect id="矩形" fill="#FFDFC6" x="10.5670656" y="45.1132416" width="58.7284992" height="2.6417664"></rect>
                        <rect id="矩形" fill="#FFDFC6" x="74.172672" y="40.64256" width="13.0056192" height="12.192768"></rect>
                        <rect id="矩形" fill="#FFDFC6" x="10.5670656" y="67.060224" width="58.7284992" height="2.6417664"></rect>
                        <rect id="矩形" fill="#FFDFC6" x="74.172672" y="62.5895424" width="13.0056192" height="12.192768"></rect>
                        <rect id="矩形" fill="#FFDFC6" x="10.5670656" y="90.429696" width="58.7284992" height="2.6417664"></rect>
                        <rect id="矩形" fill="#FFDFC6" x="74.172672" y="85.9590144" width="13.0056192" height="12.192768"></rect>
                        <rect id="矩形" fill="#FFDFC6" x="10.5670656" y="113.595955" width="58.7284992" height="2.6417664"></rect>
                        <rect id="矩形" fill="#FFDFC6" x="74.172672" y="109.125274" width="13.0056192" height="12.192768"></rect>
                        <path d="M35.56224,4.8771072 L35.56224,0.2032128 C35.56224,0.0909814696 35.6532215,-2.3294067e-14 35.7654528,-2.35367281e-14 L60.3349057,-2.35367281e-14 C60.447137,-2.35573447e-14 60.5381185,0.0909814696 60.5381185,0.2032128 L60.5381185,4.8771072 L60.5381185,4.8771072" id="路径-31" stroke="#4D4D4D" stroke-width="1.2192768"></path>
                        <circle id="椭圆形" fill="#FFFBF8" cx="35.6219876" cy="5.71988314" r="1.2192768"></circle>
                        <circle id="椭圆形" fill="#FFFBF8" cx="60.617162" cy="5.71988314" r="1.2192768"></circle>
                        <path d="M75.3919488,47.5469262 L79.1647721,50.238827 C79.6072223,50.5545142 80.2197573,50.4660992 80.5548726,50.0381759 L86.1622272,42.8779008 L86.1622272,42.8779008" id="路径-35" stroke="#FF801F" stroke-width="2.032128" stroke-linecap="round"></path>
                        <path d="M75.3919488,68.0020584 L80.6239783,71.7706523 C81.0679082,72.0904119 81.6853195,72.001259 82.020656,71.5689752 L89.6168448,61.7766912 L89.6168448,61.7766912" id="路径-35" stroke="#FF801F" stroke-width="2.032128" stroke-linecap="round"></path>
                        <path d="M75.3919488,91.9559898 L79.8524115,95.1465463 C80.2952574,95.4633128 80.9090858,95.3747013 81.2442621,94.9456206 L87.7879296,86.5686528 L87.7879296,86.5686528" id="路径-35" stroke="#FF801F" stroke-width="2.032128" stroke-linecap="round"></path>
                        <path d="M77.2806116,115.783903 L79.8501345,117.963943 C80.2780348,118.326983 80.9192187,118.274403 81.2822588,117.846503 C81.3088221,117.815194 81.3334632,117.782303 81.3560465,117.748012 L85.4091236,111.593752 L85.4091236,111.593752" id="路径-35" stroke="#FF801F" stroke-width="2.032128" stroke-linecap="round"></path>
                    </g>
                    <g id="人" transform="translate(65.447373, 38.945752)">
                        <ellipse id="椭圆形" fill="#FF801F" transform="translate(25.784009, 23.488632) rotate(-21.000000) translate(-25.784009, -23.488632) " cx="25.7840095" cy="23.4886322" rx="3.6578304" ry="5.588352"></ellipse>
                        <path d="M29.2936044,19.7720514 C30.0532308,18.3626188 29.7405976,17.1750082 28.3557048,16.2092197 C26.2783657,14.760537 23.886485,13.9342346 22.8029917,16.2092197 C22.1495446,17.5812469 19.7462366,18.9803228 18.8858674,19.7720514 C18.0254981,20.5637801 17.9221227,21.7932841 18.3894035,22.7627148 C18.700924,23.409002 19.5477338,23.7981241 20.929833,23.9300813 C21.5947227,24.0034004 22.4022214,23.6945709 23.3523291,23.0035926 C24.7774907,21.9671253 25.0803881,21.4183401 25.8665204,20.1152016 C26.3906086,19.2464426 27.5329699,19.1320592 29.2936044,19.7720514 Z" id="路径-12" fill="#333333" transform="translate(23.905649, 19.368344) rotate(-3.000000) translate(-23.905649, -19.368344) "></path>
                        <path d="M42.327757,57.1739027 L22.2936604,57.7536163 C17.1081332,42.0862085 14.5153696,34.2525047 14.5153696,34.2525047 C14.5153696,34.2525047 24.9600608,31.171292 45.8494432,25.0088667 L42.327757,57.1739027 Z" id="路径-25" fill="#FFFFFF"></path>
                        <polygon id="路径-26" fill="#D5D5D5" points="21.8872348 57.401732 42.327757 56.338327 19.7116416 112.830812 11.9571401 112.830812"></polygon>
                        <polygon id="路径-27" fill="#E1E1E1" points="21.8872348 57.401732 36.0657195 113.034698 43.2878642 113.034698 43.2878642 56.338327"></polygon>
                        <path d="M14.5153696,34.2525047 L1.07590616,47.7997594 C0.601654616,48.2778147 0.604738153,49.0498119 1.08279343,49.5240634 C1.14737709,49.5881332 1.21892836,49.6447738 1.29611128,49.6929275 L17.460875,59.7779843 L17.460875,59.7779843 L19.7116416,56.6654652 L9.22472273,47.9933677 L17.7807615,41.521833 L14.5153696,34.2525047 Z" id="路径-28" fill="#FFFFFF"></path>
                        <polygon id="路径-29" fill="#FFFFFF" transform="translate(45.255956, 22.280103) rotate(10.000000) translate(-45.255956, -22.280103) " points="39.1687524 28.6125411 47.9111508 8 51.3431602 11.0803103 45.8459985 36.5602067"></polygon>
                        <path d="M13.7982709,114.043562 C12.5708504,115.68965 11.9571401,116.512694 11.9571401,116.512694 C11.9571401,116.512694 12.5634627,122.03213 13.9604969,124.171081 C15.357531,126.310032 17.8885392,125.902773 18.5071755,125.406015 C18.9195997,125.074843 18.5141974,124.296902 17.2909686,123.072191 L18.6230781,116.512694 L18.6230781,114.043562 L13.7982709,114.043562 Z" id="路径-30" fill="#4D4D4D"></path>
                        <path d="M38.639586,114.160899 C37.4121655,115.806987 36.7984552,116.630031 36.7984552,116.630031 C36.7984552,116.630031 37.4047779,122.149467 38.801812,124.288418 C40.1988461,126.427368 42.7298543,126.02011 43.3484906,125.523352 C43.7609148,125.19218 43.3555125,124.414238 42.1322837,123.189528 L43.4643932,116.630031 L43.4643932,114.160899 L38.639586,114.160899 Z" id="路径-30" fill="#4D4D4D" transform="translate(40.151466, 120.040442) rotate(-10.000000) translate(-40.151466, -120.040442) "></path>
                        <path d="M51.1901274,9.17913647 L49.9577076,5.69006132 L51.4018813,4.113785 C52.2222743,4.30012168 52.9984458,4.67568481 53.7303958,5.24047437 C54.4623458,5.80526394 55.0872677,6.51081693 55.6051614,7.35713334 L54.2438909,8.67801654 L53.1955055,11.3090168 L51.1901274,9.17913647 Z" id="路径-33" fill="#FFA458"></path>
                        <path d="M17.8827264,59.4767262 L19.7261616,57.1739027 L22.3184286,59.3592548 L25.9901549,60.3853303 C26.3745372,60.8261545 26.5126994,61.3183003 26.4046415,61.8617677 C26.2965837,62.4052351 26.0008077,62.804596 25.5173136,63.0598503 L21.9468123,64.0945218 C20.9197938,63.459049 20.1795769,62.9003381 19.7261616,62.4183892 C19.2727464,61.9364404 18.658268,60.955886 17.8827264,59.4767262 Z" id="路径-34" fill="#FFA458"></path>
                        <path d="M45.2702063,0.256736883 C44.5076581,0.00922883989 44.0362959,0.00922883989 43.8561197,0.256736883 C43.6759435,0.504244926 43.8297128,0.940522145 44.3174278,1.56556854 L55.9940898,10.6878517 L59.0205517,11.3090168 L57.5774377,8.67801654 L45.2702063,0.256736883 Z" id="路径-32" fill="#4D4D4D"></path>
                    </g>
                </g>
                <rect x="0" y="0" width="204" height="206"></rect>
            </g>
        </g>
    </g>
</svg>