<?xml version="1.0" encoding="UTF-8"?>
<svg width="204px" height="206px" viewBox="0 0 204 206" version="1.1" xmlns="http://www.w3.org/2000/svg" xmlns:xlink="http://www.w3.org/1999/xlink">
    <title>chahua-jz2</title>
    <g id="页面-1" stroke="none" stroke-width="1" fill="none" fill-rule="evenodd">
        <g id="7.1.1家长控制-图文介绍" transform="translate(-618.000000, -256.000000)">
            <g id="chahua-jz2" transform="translate(618.000000, 256.000000)">
                <g transform="translate(21.000000, 27.000000)">
                    <path d="M80.1055369,144.5888 C97.2297716,144.5888 127.929299,138.201379 144.012876,126.598347 C160.936233,114.389481 162.816,96.5186573 162.816,78.8979128 C162.816,57.9206124 142.998953,38.685837 126.736193,27.4132672 C116.35568,20.2179897 97.1531017,0 83.4611622,0 C60.8798422,0 50.5270277,26.3560159 33.3801855,46.2057717 C23.8419466,57.2475548 0,58.4425479 0,70.726627 C0,86.2130619 2.84653714,108.201401 16.0938572,121.687321 C32.2446539,138.129012 60.7988328,144.5888 80.1055369,144.5888 Z" id="椭圆形" fill="#FFFBF8"></path>
                    <g id="时钟" transform="translate(46.489600, 17.408000)">
                        <ellipse id="椭圆形" fill="#FFDFC6" cx="40.6528" cy="40.7552" rx="40.6528" ry="40.7552"></ellipse>
                        <ellipse id="椭圆形" fill="#FFEFE2" cx="40.5504" cy="40.8576" rx="37.4784" ry="37.5808"></ellipse>
                        <rect id="矩形" fill="#FFA458" x="39.5264" y="3.2768" width="2.048" height="8.3968"></rect>
                        <rect id="矩形" fill="#FFA458" x="39.5264" y="70.0416" width="2.048" height="8.3968"></rect>
                        <rect id="矩形" fill="#FFA458" transform="translate(7.168000, 40.857600) rotate(90.000000) translate(-7.168000, -40.857600) " x="6.144" y="36.6592" width="2.048" height="8.3968"></rect>
                        <rect id="矩形" fill="#FFA458" transform="translate(73.728000, 40.857600) rotate(90.000000) translate(-73.728000, -40.857600) " x="72.704" y="36.6592" width="2.048" height="8.3968"></rect>
                    </g>
                    <g id="人" transform="translate(48.947200, 40.140800)">
                        <ellipse id="椭圆形" fill="#FF801F" transform="translate(26.316800, 8.499200) rotate(-23.000000) translate(-26.316800, -8.499200) " cx="26.3168" cy="8.4992" rx="4.1984" ry="5.8368"></ellipse>
                        <polygon id="路径-9" fill="#FFFFFF" points="13.8541259 20.8896 9.4208 41.984 15.3401205 41.984 18.8416 30.5126165"></polygon>
                        <polygon id="路径-7" fill="#4D4D4D" points="1.2288 46.75463 63.0231489 9.6256 72.0896 9.6256 67.7733097 17.3805724 4.75129942 51.6096"></polygon>
                        <path d="M46.2848,37.0849841 L24.0005872,43.008 C17.2844624,28.2314534 13.9264,20.8431801 13.9264,20.8431801 C13.9264,20.8431801 23.3025724,17.3770534 42.0549173,10.4448 L46.2848,37.0849841 Z" id="路径-4" fill="#FFFFFF"></path>
                        <path d="M3.13156245,47.3088 L0.349379697,49.2404953 C0.0237857115,49.8115701 -0.0742375731,50.2415877 0.0553098434,50.5305483 C0.18485726,50.8195088 0.575710377,51.0426593 1.22786919,51.2 L4.7104,49.5272784 L3.13156245,47.3088 Z" id="路径-8" fill="#4D4D4D"></path>
                        <polygon id="路径-10" fill="#FFFFFF" points="44.4109764 25.9392558 48.9678253 32.1536 65.9456 20.6956684 64.2076179 17.9492663 51.1185619 24.37515 41.984 10.4448"></polygon>
                        <polygon id="路径-5" fill="#D5D5D5" points="1.8432 104.2432 11.2242526 104.2432 47.9232 37.0688 22.7503752 40.6824397"></polygon>
                        <polygon id="路径-6" fill="#E1E1E1" points="56.5640034 63.6967037 44.5826163 87.0321926 53.9351056 88.6784 74.1376 63.6967037 47.8883152 37.0688 22.7328 40.6810755"></polygon>
                        <polygon id="路径-11" fill="#4D4D4D" points="1.8432 106.0864 1.8432 111.8208 18.432 111.8208 17.2162332 108.598706 6.75610306 106.0864"></polygon>
                        <polygon id="路径-11" fill="#4D4D4D" points="44.6464 89.2928 44.6464 95.0272 63.0784 95.0272 61.727548 91.8051063 50.1051812 89.2928"></polygon>
                        <path d="M30.108438,5.01486103 C30.8739975,3.59441996 30.5589225,2.39753352 29.163213,1.42420171 C27.0696487,-0.0357960029 24.6590862,-0.868552233 23.5671302,1.42420171 C22.9085794,2.80694513 20.4865003,4.21694858 19.6194111,5.01486103 C18.7523219,5.81277349 18.6481391,7.05188061 19.1190695,8.02888311 C19.4330232,8.68021811 20.2864471,9.07237952 21.6793412,9.20536733 C22.349424,9.27925913 23.1632297,8.96801745 24.1207583,8.27164229 C25.5570511,7.22707956 25.8623143,6.67400814 26.6545867,5.36069144 C27.1827683,4.48514697 28.3340521,4.36987016 30.108438,5.01486103 Z" id="路径-12" fill="#333333"></path>
                    </g>
                    <g id="编组-3" transform="translate(81.305600, 135.168000)">
                        <rect id="矩形" fill="#FFDFC6" x="5.5296" y="1.15907284e-13" width="32.1536" height="6.144"></rect>
                        <rect id="矩形" fill="#FFA458" x="-9.9475983e-14" y="5.9392" width="43.008" height="11.0592"></rect>
                    </g>
                </g>
                <rect x="0" y="0" width="204" height="206"></rect>
            </g>
        </g>
    </g>
</svg>