<?xml version="1.0" encoding="UTF-8"?>
<svg width="24px" height="24px" viewBox="0 0 24 24" version="1.1" xmlns="http://www.w3.org/2000/svg" xmlns:xlink="http://www.w3.org/1999/xlink">
    <title>icn-luyouqih</title>
    <g id="页面-1" stroke="none" stroke-width="1" fill="none" fill-rule="evenodd">
        <g id="图标切图" transform="translate(-113.000000, -557.000000)">
            <g id="icn-luyouqi" transform="translate(113.000000, 557.000000)">
                <rect id="矩形" x="0" y="0" width="24" height="24"></rect>
                <path d="M18.3099184,3.14671421 C18.5515885,3.14671421 18.7475009,3.34262656 18.7475009,3.5842967 L18.747321,12.7587142 L22.1005834,13.3444861 C22.1770667,13.3578445 22.2483658,13.3869914 22.3107446,13.4287417 L22.3096309,6.81867199 C22.3096309,6.55097584 22.5266415,6.33396523 22.7943377,6.33396523 C23.0620338,6.33396523 23.2790444,6.55097584 23.2790444,6.81867199 L23.278321,15.8947142 L23.7344105,17.2185387 C23.7442705,17.2471527 23.752312,17.2763613 23.7584867,17.3059899 C23.8326685,17.6619387 23.6294677,18.0112334 23.2959898,18.1293106 L23.2019218,18.1556121 L20.951414,18.6246306 C20.3703832,18.7457207 19.794334,18.8892576 19.2245574,19.0549019 L18.6569195,19.2279027 L15.7086689,20.1682164 C15.4647892,20.2459993 15.2183542,20.3154 14.9697987,20.3763042 L14.5954295,20.4612738 L13.5026096,20.6897186 C12.6329947,20.8715043 11.7378327,20.8868419 10.8643402,20.7360186 L10.5378885,20.6716717 L9.57572888,20.4582829 C9.34552118,20.4072272 9.11700919,20.3489319 8.89053204,20.2834892 L8.55238486,20.179976 L5.39804556,19.1597243 C4.58100655,18.895458 3.7499595,18.6772432 2.90882694,18.5060512 L2.27614779,18.3864892 L0.918230693,18.1495248 C0.857348865,18.1389005 0.798092982,18.1204624 0.74193168,18.0946675 C0.414250648,17.9441632 0.253888617,17.5780757 0.351823698,17.2419474 L0.389044114,17.1422533 L0.805320975,16.2337142 L0.805425498,6.77154772 C0.805425498,6.52987758 1.00133785,6.33396523 1.24300799,6.33396523 C1.48467812,6.33396523 1.68059048,6.52987758 1.68059048,6.77154772 L1.68032097,14.3297142 L1.99072347,13.655044 C2.0520003,13.5216308 2.1636825,13.4196036 2.29927767,13.3697951 L2.38329238,13.3463428 L5.60032097,12.7187142 L5.60039106,3.5842967 C5.60039106,3.34262656 5.79630342,3.14671421 6.03797355,3.14671421 C6.27964369,3.14671421 6.47555604,3.34262656 6.47555604,3.5842967 L6.47532097,12.5467142 L7.58242002,12.2369744 C10.3200276,11.470412 13.2070809,11.4286445 15.9611317,12.1118182 L16.4188603,12.2323929 L17.5675654,12.5527597 L17.872321,12.6057142 L17.8723359,3.5842967 C17.8723359,3.34262656 18.0682482,3.14671421 18.3099184,3.14671421 Z M15.956741,14.5660776 C15.0606546,16.0166157 13.7123365,16.5267169 12,16.5267169 C10.2823472,16.5267169 8.96811945,16.0110186 7.9233941,14.5472493 C7.82209315,14.4053161 7.64896461,14.3940801 7.53670068,14.522153 C7.42443674,14.6502259 7.41554948,14.8691091 7.51685042,15.0110423 C8.66818369,16.6241803 10.1311471,17.2190211 12,17.2190211 C13.8741692,17.2190211 15.3835923,16.6185831 16.3883003,14.992214 C16.4813764,14.8415473 16.4602216,14.624014 16.3410498,14.5063396 C16.221878,14.3886653 16.0498171,14.4154109 15.956741,14.5660776 Z" id="形状结合" fill="#FFFFFF"></path>
            </g>
        </g>
    </g>
</svg>