<?xml version="1.0" encoding="UTF-8"?>
<svg width="788px" height="73px" viewBox="0 0 788 73" version="1.1" xmlns="http://www.w3.org/2000/svg" xmlns:xlink="http://www.w3.org/1999/xlink">
    <title>tusi-ap</title>
    <g id="页面-1" stroke="none" stroke-width="1" fill="none" fill-rule="evenodd">
        <g id="8.3.1工作模式" transform="translate(-426.000000, -522.000000)">
            <g id="tusi-ap" transform="translate(426.000000, 522.000000)">
                <g>
                    <rect id="矩形" fill="#FAFAFA" x="0" y="0" width="788" height="73"></rect>
                    <g id="编组-51" transform="translate(135.000000, 18.000000)">
                        <circle id="椭圆形" fill="#D5D5D5" cx="14.592" cy="14.592" r="14.592"></circle>
                        <path d="M0.989288136,11.8714576 C5.26776501,9.23335593 9.78341014,7.91430508 14.5362235,7.91430508 C19.2890369,7.91430508 23.924307,9.23335593 28.4420339,11.8714576" id="路径-48" stroke="#FFFFFF" stroke-width="1.152" stroke-linecap="round"></path>
                        <path d="M1.23661017,22.011661 C5.33876941,19.3735593 9.76308376,18.0545085 14.5095532,18.0545085 C19.2560227,18.0545085 23.8177422,19.3735593 28.1947119,22.011661" id="路径-48" stroke="#FFFFFF" stroke-width="1.152" stroke-linecap="round" transform="translate(14.715661, 20.033085) scale(1, -1) translate(-14.715661, -20.033085) "></path>
                        <path d="M12.3661017,0.741966102 C9.06847458,4.63301187 7.41966102,9.00367964 7.41966102,13.8539694 C7.41966102,18.7042592 9.06847458,23.4845067 12.3661017,28.1947119" id="路径-49" stroke="#FFFFFF" stroke-width="1.152" stroke-linecap="round"></path>
                        <path d="M21.764339,0.741966102 C18.4667119,4.57345367 16.8178983,8.91434235 16.8178983,13.7646321 C16.8178983,18.6149219 18.4667119,23.4249485 21.764339,28.1947119" id="路径-49" stroke="#FFFFFF" stroke-width="1.152" stroke-linecap="round" transform="translate(19.291119, 14.468339) scale(-1, 1) translate(-19.291119, -14.468339) "></path>
                    </g>
                    <g id="编组-50" transform="translate(196.000000, 58.000000) scale(-1, 1) translate(-196.000000, -58.000000) translate(146.000000, 51.000000)">
                        <g id="编组-3" transform="translate(-0.000000, 0.000000)">
                            <rect id="矩形" fill="#4D4D4D" x="0.224438854" y="1.91842105" width="7.77556115" height="5.75526316" rx="0.6075"></rect>
                            <rect id="矩形" fill="#7D7B7B" x="1.77955108" y="2.00284234e-13" width="4.66533669" height="6.52263158" rx="0.6075"></rect>
                        </g>
                        <g id="编组-3" transform="translate(92.000000, 2.000000)" fill="#4D4D4D">
                            <rect id="矩形" x="0.224438854" y="-3.68594044e-14" width="7.77556115" height="5.75526316" rx="0.6075"></rect>
                        </g>
                        <path d="M4,8 L4,11 C4,12.6568542 5.34314575,14 7,14 L93,14 C94.6568542,14 96,12.6568542 96,11 L96,8.15789474 L96,8.15789474" id="路径-2" stroke="#4D4D4D" stroke-width="0.9" stroke-linecap="round"></path>
                    </g>
                    <g id="编组-50" transform="translate(324.500000, 58.000000) scale(-1, 1) translate(-324.500000, -58.000000) translate(257.257846, 51.000000)">
                        <g id="编组-3" transform="translate(-0.000000, 0.000000)">
                            <rect id="矩形" fill="#FF801F" x="126.570726" y="1.91842105" width="7.91358305" height="5.75526316" rx="0.6075"></rect>
                            <rect id="矩形" fill="#FFCD93" x="128.153443" y="0" width="4.74814983" height="6.52263158" rx="0.6075"></rect>
                            <rect id="矩形" fill="#FF801F" x="-5.77315973e-14" y="1.73189609" width="7.91358305" height="5.75526316" rx="0.6075"></rect>
                            <path d="M2.19586991,1.98951966e-13 L5.72901974,1.98951966e-13 C6.06453272,1.99001356e-13 6.33651974,0.271987014 6.33651974,0.6075 L6.33651974,5.91513158 C6.33651974,6.25064456 6.06453272,6.52263158 5.72901974,6.52263158 L2.19586991,6.52263158 C1.86035692,6.52263158 1.58836991,6.25064456 1.58836991,5.91513158 L1.58836991,0.6075 C1.58836991,0.271987014 1.86035692,1.98902576e-13 2.19586991,1.98951966e-13 Z" id="矩形" fill="#FFCD93"></path>
                        </g>
                        <path d="M3.74215448,8 L3.74215448,11 C3.74215448,12.6568542 5.08530023,14 6.74215448,14 L127.742154,14 C129.399009,14 130.742154,12.6568542 130.742154,11 L130.742154,8.15789474 L130.742154,8.15789474" id="路径-2" stroke="#FF801F" stroke-width="0.9" stroke-linecap="round"></path>
                    </g>
                    <g id="编组-11" transform="translate(603.000000, 20.000000)">
                        <path d="M4.608,0 L46.08,0 C46.5041547,3.68933445e-15 46.848,0.343845312 46.848,0.768 L46.848,28.416 L46.848,28.416 L3.84,28.416 L3.84,0.768 C3.84,0.343845312 4.18384531,-2.80866391e-15 4.608,0 Z" id="矩形" fill="#D5D5D5"></path>
                        <path d="M6.144,1.536 L44.544,1.536 C44.9681547,1.536 45.312,1.87984531 45.312,2.304 L45.312,26.112 L45.312,26.112 L5.376,26.112 L5.376,2.304 C5.376,1.87984531 5.71984531,1.536 6.144,1.536 Z" id="矩形" fill="#EFEFEF"></path>
                        <g id="2-图标/usual/wifi-4" transform="translate(17.664000, 6.144000)" fill-rule="nonzero">
                            <g id="分组-6" transform="translate(2.408992, 4.329818)">
                                <g id="编组" transform="translate(1.313803, 2.020582)" fill="#FF801F">
                                    <path d="M3.71325968,4.068225 C4.11019019,4.068225 4.47820154,4.19978127 4.78077728,4.42409506 L3.71455512,5.556225 L3.71255512,5.556225 L2.64755512,4.42275265 C2.90468301,4.23261049 3.2089315,4.10939397 3.53794894,4.07685174 L3.71325968,4.068225 Z M3.71335005,2.083725 C4.52401048,2.083725 5.28864588,2.39927939 5.88026679,2.95643009 L6.02449406,3.10070822 L5.36416691,3.80239128 C4.92884166,3.33995046 4.34135539,3.075975 3.71335005,3.075975 C3.14314708,3.075975 2.60639896,3.29362525 2.18674047,3.6795813 L2.05130568,3.81439918 L1.38652112,3.11748335 C1.99649122,2.46068314 2.82735317,2.083725 3.71335005,2.083725 Z M3.71334959,0.099225 C5.02096069,0.099225 6.25157053,0.621415944 7.19051227,1.5397548 L7.37434811,1.7286672 L6.7087419,2.42468698 C5.9235023,1.5770021 4.85528311,1.091475 3.71334959,1.091475 C2.65236978,1.091475 1.65496158,1.51057477 0.888917636,2.25014038 L0.728367802,2.41348787 L0.0650590177,1.71499662 C1.02312058,0.687962982 2.32488577,0.099225 3.71334959,0.099225 Z" id="形状结合"></path>
                                </g>
                                <g id="编组" fill="#FFCD93">
                                    <path d="M5.03710999,0.135306818 C6.84793902,0.135306818 8.55005385,0.869530877 9.83758727,2.15804055 L10.0373922,2.36606947 L9.37072486,3.06092412 C8.23612672,1.83202814 6.68985863,1.12755682 5.03710999,1.12755682 C3.49036077,1.12755682 2.03667753,1.74448572 0.926098502,2.83169709 L0.733726497,3.02840989 L0.0716789495,2.32858663 C1.37746235,0.934050317 3.14830434,0.135306818 5.03710999,0.135306818 Z" id="形状结合"></path>
                                </g>
                            </g>
                        </g>
                        <path d="M1.40838098,28.416 L50.815619,28.416 C51.3106405,28.416 51.7542983,28.7215275 51.9308355,29.184 L52.0251428,29.4310559 C52.1007749,29.6291886 52.0014686,29.8511189 51.8033359,29.926751 C51.7596081,29.943443 51.7131971,29.952 51.6663918,29.952 L0.557608236,29.952 C0.345530892,29.952 0.173608236,29.7800773 0.173608236,29.568 C0.173608236,29.5211947 0.182165225,29.4747837 0.198857192,29.4310559 L0.29316451,29.184 C0.469701666,28.7215275 0.913359549,28.416 1.40838098,28.416 Z" id="矩形" fill="#C8C8C8"></path>
                        <rect id="矩形" fill="#D5D5D5" x="36.096" y="9.216" width="12.288" height="22.272"></rect>
                        <rect id="矩形" fill="#F1F1F1" x="36.864" y="9.984" width="10.752" height="20.736"></rect>
                        <g id="2-图标/usual/wifi-4" transform="translate(38.400000, 16.128000)" fill-rule="nonzero">
                            <g id="分组-6" transform="translate(1.281882, 2.304000)">
                                <g id="编组" transform="translate(0.699106, 1.075200)" fill="#FF801F">
                                    <path d="M1.97591445,2.1648 C2.18724412,2.1648 2.38316868,2.23487945 2.54422552,2.35435934 L1.97685188,2.9558 L1.97285188,2.9558 L1.40785188,2.35417505 C1.53803006,2.25766503 1.69097093,2.19342129 1.85640406,2.17235615 L1.97591445,2.1648 Z M1.97596254,1.1088 C2.40733438,1.1088 2.81421519,1.27671405 3.12903085,1.57318729 L3.20577764,1.64996114 L2.85440174,2.02334351 C2.62275474,1.77726767 2.31013923,1.6368 1.97596254,1.6368 C1.67254388,1.6368 1.38692734,1.75261691 1.163617,1.95799338 L1.0915489,2.0297332 L0.73780111,1.65888759 C1.06238082,1.30938846 1.50450237,1.1088 1.97596254,1.1088 Z M1.97596229,0.0528 C2.67177349,0.0528 3.32661047,0.330670313 3.82624387,0.819340422 L3.92406732,0.919865235 L3.56988231,1.29023404 C3.15203751,0.839160603 2.58361248,0.5808 1.97596229,0.5808 C1.41138951,0.5808 0.880644709,0.803813027 0.473014373,1.19735361 L0.38758196,1.28427472 L0.0346194622,0.912590795 C0.544426976,0.366081587 1.23712742,0.0528 1.97596229,0.0528 Z" id="形状结合"></path>
                                </g>
                                <g id="编组" fill="#FFCD93">
                                    <path d="M2.68036692,0.072 C3.64395243,0.072 4.54968852,0.462698214 5.2348159,1.14834509 L5.34113687,1.25904226 L4.98638723,1.62879107 C4.38264037,0.974866072 3.55983407,0.6 2.68036692,0.6 C1.8573046,0.6 1.08376491,0.92828265 0.492799203,1.50681387 L0.39043345,1.61148947 L0.0381420865,1.23909674 C0.732980723,0.497030554 1.67528818,0.072 2.68036692,0.072 Z" id="形状结合"></path>
                                </g>
                            </g>
                        </g>
                    </g>
                    <g id="编组-55" transform="translate(232.000000, 15.000000)">
                        <rect id="矩形" fill="#E7E7E7" x="0" y="19.8656" width="42.2912" height="12.544"></rect>
                        <path d="M5.37121003,0.0256 L6.99358997,0.0256 C7.09066885,0.0256 7.17009466,0.102902779 7.17272422,0.19994604 L7.70061273,19.681546 C7.7032935,19.7804792 7.62526556,19.8628535 7.52633244,19.8655342 C7.52471483,19.8655781 7.52309669,19.8656 7.52147848,19.8656 L4.84332152,19.8656 C4.74435209,19.8656 4.66412152,19.7853694 4.66412152,19.6864 C4.66412152,19.6847818 4.66414344,19.6831637 4.66418727,19.681546 L5.19207578,0.19994604 C5.19470534,0.102902779 5.27413115,0.0256 5.37121003,0.0256 Z" id="矩形" fill="#D5D5D5"></path>
                        <path d="M20.42401,0.0256 L22.04639,0.0256 C22.1434688,0.0256 22.2228947,0.102902779 22.2255242,0.19994604 L22.7534127,19.681546 C22.7560935,19.7804792 22.6780656,19.8628535 22.5791324,19.8655342 C22.5775148,19.8655781 22.5758967,19.8656 22.5742785,19.8656 L19.8961215,19.8656 C19.7971521,19.8656 19.7169215,19.7853694 19.7169215,19.6864 C19.7169215,19.6847818 19.7169434,19.6831637 19.7169873,19.681546 L20.2448758,0.19994604 C20.2475053,0.102902779 20.3269312,0.0256 20.42401,0.0256 Z" id="矩形" fill="#D5D5D5"></path>
                        <path d="M35.83521,0.0256 L37.45759,0.0256 C37.5546688,0.0256 37.6340947,0.102902779 37.6367242,0.19994604 L38.1646127,19.681546 C38.1672935,19.7804792 38.0892656,19.8628535 37.9903324,19.8655342 C37.9887148,19.8655781 37.9870967,19.8656 37.9854785,19.8656 L35.3073215,19.8656 C35.2083521,19.8656 35.1281215,19.7853694 35.1281215,19.6864 C35.1281215,19.6847818 35.1281434,19.6831637 35.1281873,19.681546 L35.6560758,0.19994604 C35.6587053,0.102902779 35.7381312,0.0256 35.83521,0.0256 Z" id="矩形" fill="#D5D5D5"></path>
                        <g id="编组-39" transform="translate(21.027200, 27.152000) rotate(90.000000) translate(-21.027200, -27.152000) translate(19.027200, 25.152000)" fill="#C0C0C0">
                            <rect id="矩形" x="0.43008" y="0" width="2.58048" height="3.87072" rx="0.150528"></rect>
                            <rect id="矩形" x="0" y="0.86016" width="1.29024" height="2.1504" rx="0.150528"></rect>
                        </g>
                        <g id="编组-39" transform="translate(14.576000, 27.152000) rotate(90.000000) translate(-14.576000, -27.152000) translate(12.576000, 25.152000)" fill="#C0C0C0">
                            <rect id="矩形" x="0.43008" y="0" width="2.58048" height="3.87072" rx="0.150528"></rect>
                            <rect id="矩形" x="0" y="0.86016" width="1.29024" height="2.1504" rx="0.150528"></rect>
                        </g>
                        <g id="编组-39" transform="translate(8.124800, 27.152000) rotate(90.000000) translate(-8.124800, -27.152000) translate(6.124800, 25.152000)" fill="#4D4D4D">
                            <rect id="矩形" x="0.43008" y="0" width="2.58048" height="3.87072" rx="0.150528"></rect>
                            <rect id="矩形" x="0" y="0.86016" width="1.29024" height="2.1504" rx="0.150528"></rect>
                        </g>
                        <g id="编组-39" transform="translate(27.478400, 27.152000) rotate(90.000000) translate(-27.478400, -27.152000) translate(25.478400, 25.152000)" fill="#FF801F">
                            <rect id="矩形" x="0.43008" y="0" width="2.58048" height="3.87072" rx="0.150528"></rect>
                            <rect id="矩形" x="0" y="0.86016" width="1.29024" height="2.1504" rx="0.150528"></rect>
                        </g>
                        <g id="编组-39" transform="translate(33.929600, 27.152000) rotate(90.000000) translate(-33.929600, -27.152000) translate(31.929600, 25.152000)" fill="#C0C0C0">
                            <rect id="矩形" x="0.43008" y="0" width="2.58048" height="3.87072" rx="0.150528"></rect>
                            <rect id="矩形" x="0" y="0.86016" width="1.29024" height="2.1504" rx="0.150528"></rect>
                        </g>
                    </g>
                    <line x1="416.25" y1="36.75" x2="475.5" y2="36.5" id="直线-8" stroke="#FFA458" stroke-linecap="round" stroke-dasharray="2"></line>
                    <line x1="522.25" y1="36.75" x2="587.75" y2="36.25" id="直线-8" stroke="#FFA458" stroke-linecap="round" stroke-dasharray="2"></line>
                    <g id="无线" transform="translate(487.000000, 30.000000)">
                        <rect id="矩形" x="1.8189894e-12" y="0" width="28" height="13"></rect>
                        <g id="编组-21" transform="translate(1.000000, 2.000000)" stroke="#FFA458" stroke-linecap="round" stroke-width="1.5">
                            <path d="M18.0487805,9 C19.2300116,7.99714263 20,6.35438113 20,4.49794788 C20,2.64404495 19.2321091,1.00323168 18.0536082,0" id="路径"></path>
                            <path d="M11.7073171,8.4375 C12.5953065,7.60107319 13.1707317,6.26064674 13.1707317,4.74971075 C13.1707317,3.27620123 12.6234604,1.9648587 11.7727253,1.125" id="路径"></path>
                            <path d="M5.90814892,7.3125 C6.45691093,6.67514429 6.79797185,5.78257716 6.79797185,4.79457296 C6.79797185,3.79272234 6.44728433,2.88900254 5.88495498,2.25" id="路径"></path>
                            <path d="M0.30328495,6.1875 C0.535473466,5.77657471 0.672324806,5.27161112 0.672324806,4.72574007 C0.672324806,4.22807058 0.558574927,3.7644031 0.362534474,3.375" id="路径"></path>
                        </g>
                    </g>
                </g>
                <g id="编组-2" transform="translate(361.000000, 17.720000)">
                    <path d="M4.76413867,0 L27.7122457,0 C27.8882047,-6.31959249e-15 28.0610485,0.046428742 28.2133238,0.134597942 L32.1315077,2.40327317 C32.2270974,2.45862073 32.25972,2.58097953 32.2043725,2.6765692 C32.1686135,2.73832787 32.1026562,2.77635358 32.0312921,2.77635358 L0.702314133,2.77635358 C0.591857183,2.77635358 0.502314133,2.68681053 0.502314133,2.57635358 C0.502314133,2.50712941 0.538110769,2.4428274 0.59694959,2.40635854 L4.23731596,0.150024808 C4.39553729,0.0519577187 4.57799049,-1.07602816e-15 4.76413867,0 Z" id="矩形" fill="#D5D5D5"></path>
                    <rect id="矩形" fill="#E7E7E7" x="0" y="2.77635358" width="32.7758475" height="28.2236464" rx="1"></rect>
                    <g id="编组-12" transform="translate(5.000000, 25.240000)">
                        <g id="编组-39" transform="translate(1.920000, 1.600000) rotate(90.000000) translate(-1.920000, -1.600000) translate(0.320000, -0.320000)" fill="#C0C0C0">
                            <rect id="矩形" x="0.457142857" y="7.21644966e-14" width="2.74285714" height="3.84" rx="0.224"></rect>
                            <rect id="矩形" x="2.56461519e-14" y="0.853333333" width="1.37142857" height="2.13333333" rx="0.224"></rect>
                        </g>
                        <g id="编组-39" transform="translate(8.320000, 1.600000) rotate(90.000000) translate(-8.320000, -1.600000) translate(6.720000, -0.320000)" fill="#C0C0C0">
                            <rect id="矩形" x="0.457142857" y="7.21644966e-14" width="2.74285714" height="3.84" rx="0.224"></rect>
                            <rect id="矩形" x="2.56461519e-14" y="0.853333333" width="1.37142857" height="2.13333333" rx="0.224"></rect>
                        </g>
                        <g id="编组-39" transform="translate(14.720000, 1.600000) rotate(90.000000) translate(-14.720000, -1.600000) translate(13.120000, -0.320000)" fill="#C0C0C0">
                            <rect id="矩形" x="0.457142857" y="7.21644966e-14" width="2.74285714" height="3.84" rx="0.224"></rect>
                            <rect id="矩形" x="2.56461519e-14" y="0.853333333" width="1.37142857" height="2.13333333" rx="0.224"></rect>
                        </g>
                        <g id="编组-39" transform="translate(21.800000, 1.600000) rotate(90.000000) translate(-21.800000, -1.600000) translate(20.200000, -0.320000)" fill="#FF801F">
                            <rect id="矩形" x="0.457142857" y="7.21644966e-14" width="2.74285714" height="3.84" rx="0.224"></rect>
                            <rect id="矩形" x="2.56461519e-14" y="0.853333333" width="1.37142857" height="2.13333333" rx="0.224"></rect>
                        </g>
                    </g>
                </g>
            </g>
        </g>
    </g>
</svg>