<?xml version="1.0" encoding="UTF-8"?>
<svg width="788px" height="74px" viewBox="0 0 788 74" version="1.1" xmlns="http://www.w3.org/2000/svg" xmlns:xlink="http://www.w3.org/1999/xlink">
    <title>tusi-luy</title>
    <g id="页面-1" stroke="none" stroke-width="1" fill="none" fill-rule="evenodd">
        <g id="8.3.1工作模式" transform="translate(-426.000000, -328.000000)">
            <g id="tusi-luy" transform="translate(426.000000, 328.000000)">
                <rect id="矩形" fill="#FAFAFA" x="0" y="0" width="788" height="74"></rect>
                <g id="编组-2" transform="translate(370.080000, 2.000000)">
                    <path d="M4.76413867,15.72 L27.7122457,15.72 C27.8882047,15.72 28.0610485,15.7664287 28.2133238,15.8545979 L32.1315077,18.1232732 C32.2270974,18.1786207 32.25972,18.3009795 32.2043725,18.3965692 C32.1686135,18.4583279 32.1026562,18.4963536 32.0312921,18.4963536 L0.702314133,18.4963536 C0.591857183,18.4963536 0.502314133,18.4068105 0.502314133,18.2963536 C0.502314133,18.2271294 0.538110769,18.1628274 0.59694959,18.1263585 L4.23731596,15.8700248 C4.39553729,15.7719577 4.57799049,15.72 4.76413867,15.72 Z" id="矩形" fill="#D5D5D5"></path>
                    <rect id="矩形" fill="#E7E7E7" x="0" y="18.4963536" width="32.7758475" height="28.2236464" rx="1"></rect>
                    <g id="编组-12" transform="translate(5.000000, 0.000000)">
                        <g id="编组-39" transform="translate(1.920000, 42.560000) rotate(90.000000) translate(-1.920000, -42.560000) translate(0.320000, 40.640000)" fill="#4D4D4D">
                            <rect id="矩形" x="0.457142857" y="7.21644966e-14" width="2.74285714" height="3.84" rx="0.224"></rect>
                            <rect id="矩形" x="2.56461519e-14" y="0.853333333" width="1.37142857" height="2.13333333" rx="0.224"></rect>
                        </g>
                        <g id="编组-39" transform="translate(8.320000, 42.560000) rotate(90.000000) translate(-8.320000, -42.560000) translate(6.720000, 40.640000)" fill="#C0C0C0">
                            <rect id="矩形" x="0.457142857" y="7.21644966e-14" width="2.74285714" height="3.84" rx="0.224"></rect>
                            <rect id="矩形" x="2.56461519e-14" y="0.853333333" width="1.37142857" height="2.13333333" rx="0.224"></rect>
                        </g>
                        <g id="编组-39" transform="translate(14.720000, 42.560000) rotate(90.000000) translate(-14.720000, -42.560000) translate(13.120000, 40.640000)" fill="#C0C0C0">
                            <rect id="矩形" x="0.457142857" y="7.21644966e-14" width="2.74285714" height="3.84" rx="0.224"></rect>
                            <rect id="矩形" x="2.56461519e-14" y="0.853333333" width="1.37142857" height="2.13333333" rx="0.224"></rect>
                        </g>
                        <g id="编组-39" transform="translate(21.800000, 42.560000) rotate(90.000000) translate(-21.800000, -42.560000) translate(20.200000, 40.640000)" fill="#FF801F">
                            <rect id="矩形" x="0.457142857" y="7.21644966e-14" width="2.74285714" height="3.84" rx="0.224"></rect>
                            <rect id="矩形" x="2.56461519e-14" y="0.853333333" width="1.37142857" height="2.13333333" rx="0.224"></rect>
                        </g>
                        <g id="2-图标/usual/wifi-4" transform="translate(3.920000, 0.000000)" fill-rule="nonzero">
                            <g id="分组-6" transform="translate(2.656299, 4.500000)">
                                <g id="编组" transform="translate(1.399730, 2.000000)" fill="#FF801F">
                                    <path d="M3.90648849,4 C4.33160498,4 4.72574265,4.17692439 5.0497766,4.47858413 L3.90734837,6 L3.90534837,6 L2.76534837,4.47658723 C3.04945888,4.21282948 3.38729357,4.04486943 3.75255584,4.00778436 L3.90648849,4 Z M3.90658526,2 C4.77463938,2 5.59340997,2.36466066 6.22691686,3.0085146 L6.38135523,3.17524515 L5.67427779,3.98612344 C5.20813208,3.45171804 4.57905255,3.14666297 3.90658526,3.14666297 C3.29601267,3.14666297 2.72126348,3.39818374 2.27189371,3.8442019 L2.12687032,4 L1.41501989,3.19463082 C2.06817507,2.43562 2.95786096,2 3.90658526,2 Z M3.90658477,0 C5.30677302,0 6.62450842,0.526269533 7.62992601,1.4517811 L7.82677718,1.64216901 L7.11404692,2.34362508 C6.27321339,1.48931932 5.12936569,1 3.90658477,1 C2.77048897,1 1.70246558,1.42237316 0.882186729,2.16771517 L0.710270177,2.33233849 L0,1.62839166 C1.02589107,0.593336338 2.41981952,0 3.90658477,0 Z" id="形状结合"></path>
                                </g>
                                <g id="编组" fill="#FFCD93">
                                    <path d="M5.31697706,0 C7.25601041,0 9.07863273,0.739958739 10.4573218,2.03853236 L10.6712726,2.24818609 L9.95740617,2.94846793 C8.74247998,1.70997362 7.08673813,1 5.31697706,1 C3.66072001,1 2.1041179,1.62174744 0.914911337,2.71745051 L0.708919646,2.91569975 L0,2.21041049 C1.39823116,0.804982111 3.29444644,0 5.31697706,0 Z" id="形状结合"></path>
                                </g>
                            </g>
                        </g>
                    </g>
                </g>
                <g id="编组-51" transform="translate(129.000000, 20.000000)" fill="#D5D5D5">
                    <path d="M17.009893,0.199395342 C23.9181514,1.35139945 29.184,7.3567473 29.184,14.592 C29.184,22.6509391 22.6509391,29.184 14.592,29.184 C7.77466229,29.184 2.04925187,24.5089035 0.4468966,18.1898383 C0.48249777,18.2340925 0.525817121,18.2726348 0.575762157,18.3047545 C3.01915947,19.8761051 5.57722097,20.990632 8.24748452,21.6473339 C9.08668769,23.958842 10.3029505,26.2521115 11.8942469,28.5250587 C12.0766924,28.7856569 12.4358503,28.8490122 12.6964485,28.6665667 C12.9570467,28.4841212 13.020402,28.1249633 12.8379565,27.864365 C11.4609628,25.8975195 10.3784544,23.9217216 9.58940106,21.93618 C11.0798874,22.2146426 12.6033617,22.3534419 14.1602651,22.3534419 C16.0144329,22.3534419 17.8409739,22.1566034 19.6393433,21.7632678 C18.8463249,23.8014597 17.7482824,25.8361928 16.3441581,27.8671503 C16.1632509,28.1288187 16.2287207,28.4875972 16.4903891,28.6685044 C16.7520575,28.8494117 17.110836,28.7839419 17.2917433,28.5222734 C18.9172767,26.1710647 20.1513161,23.8057072 20.9923528,21.4272776 C23.429383,20.7563589 25.8131648,19.7177132 28.1427605,18.3136116 C28.4152149,18.149397 28.5029605,17.7954069 28.338746,17.5229525 C28.1745314,17.2504982 27.8205413,17.1627525 27.5480869,17.3269671 C25.5428668,18.5355601 23.5003893,19.4609531 21.4196562,20.1037722 C22.0331368,17.9998798 22.3403914,15.8868975 22.3403914,13.7646321 C22.3403914,12.2884387 22.1916646,10.8574083 21.8945217,9.47213455 C23.8834403,10.1088921 25.8529179,10.9962322 27.8022893,12.1345568 C28.0769981,12.2949715 28.4297354,12.2023178 28.5901501,11.927609 C28.7505647,11.6529002 28.6579111,11.3001629 28.3832023,11.1397483 C26.141438,9.83068237 23.8685715,8.83956787 21.5655859,8.16715315 C20.7598167,5.3699963 19.3214194,2.76773696 17.2545218,0.36622463 C17.2084071,0.31264428 17.1545804,0.269625768 17.0961005,0.237398157 Z M14.1869354,8.256 C16.3573859,8.256 18.5033208,8.53743747 20.625607,9.1009724 C21.0010801,10.5982458 21.1883914,12.1519778 21.1883914,13.7646321 C21.1883914,16.0065384 20.8262062,18.2417989 20.100413,20.4714291 C18.1532712,20.9585896 16.1737386,21.2014419 14.1602651,21.2014419 C12.4389593,21.2014419 10.7616273,21.0239774 9.12763144,20.6687891 C8.37191606,18.4101426 7.99566102,16.1390189 7.99566102,13.8539694 C7.99566102,12.1391561 8.20746757,10.4869537 8.63166729,8.89630649 C10.4460421,8.46932942 12.2971912,8.256 14.1869354,8.256 Z M7.36046509,9.23469193 C7.01606024,10.7245952 6.84366102,12.2645905 6.84366102,13.8539694 C6.84366102,16.0321822 7.16733266,18.1949573 7.81355668,20.3414351 C5.52299166,19.7007624 3.31814301,18.6987226 1.19888191,17.3358242 C0.931319218,17.1637545 0.574926692,17.2411668 0.402856924,17.5087295 C0.367181519,17.5642035 0.342230391,17.623496 0.327474755,17.6841726 C0.11328295,16.6879636 -3.57047725e-13,15.6532111 -3.57047725e-13,14.592 C-3.57047725e-13,13.7190037 0.0766629947,12.863913 0.223624004,12.0330929 C0.406916138,12.2277914 0.706497768,12.2728444 0.942311619,12.1274419 C2.95919188,10.8838369 5.02762797,9.94028272 7.14881792,9.2961395 Z M12.1715274,0.199723004 C12.0794185,0.232677539 11.9944772,0.289564753 11.9266811,0.369561014 C9.93559613,2.71894816 8.52805674,5.24427741 7.70654066,7.94109009 C5.17679036,8.608927 2.71977524,9.67807237 0.337688381,11.1468632 L0.421965214,11.0939674 C1.79761481,5.50259386 6.3962953,1.17896822 12.1351512,0.20594589 Z M14.592,9.76996262e-14 C15.3427722,9.76996262e-14 16.0803015,0.0566992459 16.8005396,0.166049329 C16.6733887,0.169916787 16.5463629,0.215753589 16.4422092,0.305394978 C16.2010977,0.512911262 16.1738633,0.876595999 16.3813796,1.11770757 C18.1739762,3.20051177 19.4639638,5.43309042 20.2534342,7.81943969 C18.2526692,7.34250814 16.2306581,7.104 14.1869354,7.104 C12.4324609,7.104 10.7094063,7.27978804 9.01827621,7.63109464 C9.81440233,5.32614986 11.076222,3.15486465 12.8055223,1.11437119 C13.0111959,0.871685901 12.9811921,0.508219167 12.7385068,0.302545516 C12.634774,0.214632856 12.508974,0.16977917 12.382862,0.166188598 C13.1030131,0.0567519526 13.840879,9.76996262e-14 14.592,9.76996262e-14 Z" id="形状结合"></path>
                </g>
                <g id="编组-50" transform="translate(260.000000, 59.500000) scale(-1, 1) translate(-260.000000, -59.500000) translate(140.000000, 52.000000)">
                    <g id="编组-3" transform="translate(-0.000000, -0.000000)">
                        <rect id="矩形" fill="#4D4D4D" x="-1.98951966e-13" y="1.76736842" width="7.77556115" height="5.75526316" rx="0.6075"></rect>
                        <rect id="矩形" fill="#7D7B7B" x="1.55511223" y="-2.70894418e-14" width="4.66533669" height="6.52263158" rx="0.6075"></rect>
                    </g>
                    <g id="编组-3" transform="translate(232.000000, 1.000000)" fill="#4D4D4D">
                        <rect id="矩形" x="0" y="0.918421053" width="7.77556115" height="5.75526316" rx="0.6075"></rect>
                    </g>
                    <path d="M4,9 L4,12 C4,13.6568542 5.34314575,15 7,15 L233,15 C234.656854,15 236,13.6568542 236,12 L236,9.15789474 L236,9.15789474" id="路径-2" stroke="#4D4D4D" stroke-width="0.9" stroke-linecap="round"></path>
                </g>
                <g id="编组-50" transform="translate(511.626218, 59.000000) scale(-1, 1) translate(-511.626218, -59.000000) translate(392.252436, 52.000000)">
                    <g id="编组-3" transform="translate(0.000000, 1.000000)" fill="#FF801F">
                        <rect id="矩形" x="0" y="0.918421053" width="7.74756383" height="5.75526316" rx="0.6075"></rect>
                    </g>
                    <g id="编组-3" transform="translate(231.000000, -0.000000)">
                        <rect id="矩形" fill="#FF801F" x="8.30446822e-14" y="1.91842105" width="7.74756383" height="5.75526316" rx="0.6075"></rect>
                        <rect id="矩形" fill="#FFCD93" x="1.54951277" y="-2.70894418e-14" width="4.6485383" height="6.52263158" rx="0.6075"></rect>
                    </g>
                    <path d="M4,8 L4,11 C4,12.6568542 5.34314575,14 7,14 L232,14 C233.656854,14 235,12.6568542 235,11 L235,8.15789474 L235,8.15789474" id="路径-2" stroke="#FF801F" stroke-width="0.9" stroke-linecap="round"></path>
                </g>
                <g id="编组-11" transform="translate(602.000000, 18.000000)">
                    <path d="M4.608,0 L46.08,0 C46.5041547,3.68933445e-15 46.848,0.343845312 46.848,0.768 L46.848,28.416 L46.848,28.416 L3.84,28.416 L3.84,0.768 C3.84,0.343845312 4.18384531,-2.80866391e-15 4.608,0 Z" id="矩形" fill="#D5D5D5"></path>
                    <path d="M6.144,1.536 L44.544,1.536 C44.9681547,1.536 45.312,1.87984531 45.312,2.304 L45.312,26.112 L45.312,26.112 L5.376,26.112 L5.376,2.304 C5.376,1.87984531 5.71984531,1.536 6.144,1.536 Z" id="矩形" fill="#EFEFEF"></path>
                    <g id="2-图标/usual/wifi-4" transform="translate(17.664000, 6.144000)" fill-rule="nonzero">
                        <g id="分组-6" transform="translate(2.408992, 4.329818)">
                            <g id="编组" transform="translate(1.313803, 2.020582)" fill="#FF801F">
                                <path d="M3.71325968,4.068225 C4.11019019,4.068225 4.47820154,4.19978127 4.78077728,4.42409506 L3.71455512,5.556225 L3.71255512,5.556225 L2.64755512,4.42275265 C2.90468301,4.23261049 3.2089315,4.10939397 3.53794894,4.07685174 L3.71325968,4.068225 Z M3.71335005,2.083725 C4.52401048,2.083725 5.28864588,2.39927939 5.88026679,2.95643009 L6.02449406,3.10070822 L5.36416691,3.80239128 C4.92884166,3.33995046 4.34135539,3.075975 3.71335005,3.075975 C3.14314708,3.075975 2.60639896,3.29362525 2.18674047,3.6795813 L2.05130568,3.81439918 L1.38652112,3.11748335 C1.99649122,2.46068314 2.82735317,2.083725 3.71335005,2.083725 Z M3.71334959,0.099225 C5.02096069,0.099225 6.25157053,0.621415944 7.19051227,1.5397548 L7.37434811,1.7286672 L6.7087419,2.42468698 C5.9235023,1.5770021 4.85528311,1.091475 3.71334959,1.091475 C2.65236978,1.091475 1.65496158,1.51057477 0.888917636,2.25014038 L0.728367802,2.41348787 L0.0650590177,1.71499662 C1.02312058,0.687962982 2.32488577,0.099225 3.71334959,0.099225 Z" id="形状结合"></path>
                            </g>
                            <g id="编组" fill="#FFCD93">
                                <path d="M5.03710999,0.135306818 C6.84793902,0.135306818 8.55005385,0.869530877 9.83758727,2.15804055 L10.0373922,2.36606947 L9.37072486,3.06092412 C8.23612672,1.83202814 6.68985863,1.12755682 5.03710999,1.12755682 C3.49036077,1.12755682 2.03667753,1.74448572 0.926098502,2.83169709 L0.733726497,3.02840989 L0.0716789495,2.32858663 C1.37746235,0.934050317 3.14830434,0.135306818 5.03710999,0.135306818 Z" id="形状结合"></path>
                            </g>
                        </g>
                    </g>
                    <path d="M1.40838098,28.416 L50.815619,28.416 C51.3106405,28.416 51.7542983,28.7215275 51.9308355,29.184 L52.0251428,29.4310559 C52.1007749,29.6291886 52.0014686,29.8511189 51.8033359,29.926751 C51.7596081,29.943443 51.7131971,29.952 51.6663918,29.952 L0.557608236,29.952 C0.345530892,29.952 0.173608236,29.7800773 0.173608236,29.568 C0.173608236,29.5211947 0.182165225,29.4747837 0.198857192,29.4310559 L0.29316451,29.184 C0.469701666,28.7215275 0.913359549,28.416 1.40838098,28.416 Z" id="矩形" fill="#C8C8C8"></path>
                    <rect id="矩形" fill="#D5D5D5" x="36.096" y="9.216" width="12.288" height="22.272"></rect>
                    <rect id="矩形" fill="#F1F1F1" x="36.864" y="9.984" width="10.752" height="20.736"></rect>
                    <g id="2-图标/usual/wifi-4" transform="translate(38.400000, 16.128000)" fill-rule="nonzero">
                        <g id="分组-6" transform="translate(1.281882, 2.304000)">
                            <g id="编组" transform="translate(0.699106, 1.075200)" fill="#FF801F">
                                <path d="M1.97591445,2.1648 C2.18724412,2.1648 2.38316868,2.23487945 2.54422552,2.35435934 L1.97685188,2.9558 L1.97285188,2.9558 L1.40785188,2.35417505 C1.53803006,2.25766503 1.69097093,2.19342129 1.85640406,2.17235615 L1.97591445,2.1648 Z M1.97596254,1.1088 C2.40733438,1.1088 2.81421519,1.27671405 3.12903085,1.57318729 L3.20577764,1.64996114 L2.85440174,2.02334351 C2.62275474,1.77726767 2.31013923,1.6368 1.97596254,1.6368 C1.67254388,1.6368 1.38692734,1.75261691 1.163617,1.95799338 L1.0915489,2.0297332 L0.73780111,1.65888759 C1.06238082,1.30938846 1.50450237,1.1088 1.97596254,1.1088 Z M1.97596229,0.0528 C2.67177349,0.0528 3.32661047,0.330670313 3.82624387,0.819340422 L3.92406732,0.919865235 L3.56988231,1.29023404 C3.15203751,0.839160603 2.58361248,0.5808 1.97596229,0.5808 C1.41138951,0.5808 0.880644709,0.803813027 0.473014373,1.19735361 L0.38758196,1.28427472 L0.0346194622,0.912590795 C0.544426976,0.366081587 1.23712742,0.0528 1.97596229,0.0528 Z" id="形状结合"></path>
                            </g>
                            <g id="编组" fill="#FFCD93">
                                <path d="M2.68036692,0.072 C3.64395243,0.072 4.54968852,0.462698214 5.2348159,1.14834509 L5.34113687,1.25904226 L4.98638723,1.62879107 C4.38264037,0.974866072 3.55983407,0.6 2.68036692,0.6 C1.8573046,0.6 1.08376491,0.92828265 0.492799203,1.50681387 L0.39043345,1.61148947 L0.0381420865,1.23909674 C0.732980723,0.497030554 1.67528818,0.072 2.68036692,0.072 Z" id="形状结合"></path>
                            </g>
                        </g>
                    </g>
                </g>
            </g>
        </g>
    </g>
</svg>