<?xml version="1.0" encoding="UTF-8"?>
<svg width="788px" height="73px" viewBox="0 0 788 73" version="1.1" xmlns="http://www.w3.org/2000/svg" xmlns:xlink="http://www.w3.org/1999/xlink">
    <title>tusi-wisp</title>
    <g id="页面-1" stroke="none" stroke-width="1" fill="none" fill-rule="evenodd">
        <g id="8.3.1工作模式" transform="translate(-426.000000, -679.000000)">
            <g id="tusi-wisp" transform="translate(426.000000, 679.000000)">
                <rect id="矩形" fill="#FAFAFA" x="0" y="0" width="788" height="73"></rect>
                <g id="编组-51" transform="translate(135.000000, 26.000000)">
                    <circle id="椭圆形" fill="#D5D5D5" cx="14.592" cy="14.592" r="14.592"></circle>
                    <path d="M0.989288136,11.8714576 C5.26776501,9.23335593 9.78341014,7.91430508 14.5362235,7.91430508 C19.2890369,7.91430508 23.924307,9.23335593 28.4420339,11.8714576" id="路径-48" stroke="#FFFFFF" stroke-width="1.152" stroke-linecap="round"></path>
                    <path d="M1.23661017,22.011661 C5.33876941,19.3735593 9.76308376,18.0545085 14.5095532,18.0545085 C19.2560227,18.0545085 23.8177422,19.3735593 28.1947119,22.011661" id="路径-48" stroke="#FFFFFF" stroke-width="1.152" stroke-linecap="round" transform="translate(14.715661, 20.033085) scale(1, -1) translate(-14.715661, -20.033085) "></path>
                    <path d="M12.3661017,0.741966102 C9.06847458,4.63301187 7.41966102,9.00367964 7.41966102,13.8539694 C7.41966102,18.7042592 9.06847458,23.4845067 12.3661017,28.1947119" id="路径-49" stroke="#FFFFFF" stroke-width="1.152" stroke-linecap="round"></path>
                    <path d="M21.764339,0.741966102 C18.4667119,4.57345367 16.8178983,8.91434235 16.8178983,13.7646321 C16.8178983,18.6149219 18.4667119,23.4249485 21.764339,28.1947119" id="路径-49" stroke="#FFFFFF" stroke-width="1.152" stroke-linecap="round" transform="translate(19.291119, 14.468339) scale(-1, 1) translate(-19.291119, -14.468339) "></path>
                </g>
                <g id="编组-12" transform="translate(357.000000, 17.000000)">
                    <path d="M2.66205949,31.9120365 C4.07952826,30.8456675 7.01304856,30.312483 11.4626204,30.312483 C14.5299571,30.312483 18.091896,29.7714304 22.1484373,28.6893252 C25.2679888,28.3364417 27.984392,28.16 30.2976471,28.16 C32.9602109,28.16 35.6278588,28.3364417 38.300591,28.6893252 C42.6245286,29.6649982 45.9505105,30.2060508 48.2785365,30.312483 C51.9344065,30.4796213 55.1934047,31.2326836 58.055531,32.5716699 C58.1680981,32.6242559 58.24,32.737275 58.24,32.8615193 L58.24,35.6169425 L58.24,35.6169425 L57.6157333,37.6754552 C57.3700313,38.4856547 56.6226449,39.0392896 55.7760095,39.0382513 L5.2360772,38.9762707 C4.38387741,38.9752255 3.63434558,38.4125733 3.39542924,37.5945485 L2.56,34.7341254 L2.56,34.7341254 L2.56,32.1166616 C2.55993533,32.0361961 2.59775835,31.9604106 2.66205949,31.9120365 Z" id="矩形" fill="#E7E7E7"></path>
                    <path d="M0.880110621,0 L2.31988938,0 C2.49481569,7.88888611e-17 2.6373259,0.140463737 2.63985591,0.315371747 L3.19530432,38.7153717 C3.19786043,38.8920844 3.05667867,39.0374104 2.87996604,39.0399665 C2.87842339,39.0399888 2.8768806,39.04 2.87533779,39.04 L0.324662212,39.04 C0.147931092,39.04 0.00466221187,38.8967311 0.00466221187,38.72 C0.00466221187,38.7184572 0.00467336937,38.7169144 0.0046956835,38.7153717 L0.560144092,0.315371747 C0.562674102,0.140463737 0.705184314,-5.78489222e-16 0.880110621,0 Z" id="矩形" fill="#D5D5D5"></path>
                    <path d="M15.6001106,0 L17.0398894,0 C17.2148157,7.88888611e-17 17.3573259,0.140463737 17.3598559,0.315371747 L17.9153043,38.7153717 C17.9178604,38.8920844 17.7766787,39.0374104 17.599966,39.0399665 C17.5984234,39.0399888 17.5968806,39.04 17.5953378,39.04 L15.0446622,39.04 C14.8679311,39.04 14.7246622,38.8967311 14.7246622,38.72 C14.7246622,38.7184572 14.7246734,38.7169144 14.7246957,38.7153717 L15.2801441,0.315371747 C15.2826741,0.140463737 15.4251843,-5.78489222e-16 15.6001106,0 Z" id="矩形" fill="#D5D5D5"></path>
                    <path d="M43.7601106,0 L45.1998894,0 C45.3748157,3.34109252e-16 45.5173259,0.140463737 45.5198559,0.315371747 L46.0753043,38.7153717 C46.0778604,38.8920844 45.9366787,39.0374104 45.759966,39.0399665 C45.7584234,39.0399888 45.7568806,39.04 45.7553378,39.04 L43.2046622,39.04 C43.0279311,39.04 42.8846622,38.8967311 42.8846622,38.72 C42.8846622,38.7184572 42.8846734,38.7169144 42.8846957,38.7153717 L43.4401441,0.315371747 C43.4426741,0.140463737 43.5851843,-6.34000373e-16 43.7601106,0 Z" id="矩形" fill="#D5D5D5"></path>
                    <path d="M57.8401106,0 L59.2798894,0 C59.4548157,2.33777099e-17 59.5973259,0.140463737 59.5998559,0.315371747 L60.1553043,38.7153717 C60.1578604,38.8920844 60.0166787,39.0374104 59.839966,39.0399665 C59.8384234,39.0399888 59.8368806,39.04 59.8353378,39.04 L57.2846622,39.04 C57.1079311,39.04 56.9646622,38.8967311 56.9646622,38.72 C56.9646622,38.7184572 56.9646734,38.7169144 56.9646957,38.7153717 L57.5201441,0.315371747 C57.5226741,0.140463737 57.6651843,1.47542337e-15 57.8401106,0 Z" id="矩形" fill="#D5D5D5"></path>
                    <g id="编组-39" transform="translate(24.560000, 34.960000) rotate(90.000000) translate(-24.560000, -34.960000) translate(22.560000, 32.960000)" fill="#C0C0C0">
                        <rect id="矩形" x="0.457142857" y="0" width="2.74285714" height="3.84" rx="0.224"></rect>
                        <rect id="矩形" x="0" y="0.853333333" width="1.37142857" height="2.13333333" rx="0.224"></rect>
                    </g>
                    <g id="编组-39" transform="translate(30.320000, 34.960000) rotate(90.000000) translate(-30.320000, -34.960000) translate(28.320000, 32.960000)" fill="#FF801F">
                        <rect id="矩形" x="0.457142857" y="0" width="2.74285714" height="3.84" rx="0.224"></rect>
                        <rect id="矩形" x="0" y="0.853333333" width="1.37142857" height="2.13333333" rx="0.224"></rect>
                    </g>
                    <g id="编组-39" transform="translate(36.720000, 34.960000) rotate(90.000000) translate(-36.720000, -34.960000) translate(34.720000, 32.960000)" fill="#C0C0C0">
                        <rect id="矩形" x="0.457142857" y="0" width="2.74285714" height="3.84" rx="0.224"></rect>
                        <rect id="矩形" x="0" y="0.853333333" width="1.37142857" height="2.13333333" rx="0.224"></rect>
                    </g>
                    <g id="编组-39" transform="translate(50.800000, 34.960000) rotate(90.000000) translate(-50.800000, -34.960000) translate(48.800000, 32.960000)" fill="#C0C0C0">
                        <rect id="矩形" x="0.457142857" y="0" width="2.74285714" height="3.84" rx="0.224"></rect>
                        <rect id="矩形" x="0" y="0.853333333" width="1.37142857" height="2.13333333" rx="0.224"></rect>
                    </g>
                    <g id="2-图标/usual/wifi-4" transform="translate(25.600000, 14.720000)" fill-rule="nonzero">
                        <g id="分组-6" transform="translate(2.007493, 3.608182)">
                            <g id="编组" transform="translate(1.094836, 1.683818)" fill="#FF801F">
                                <path d="M3.09438306,3.3901875 C3.42527668,3.3901875 3.73205377,3.49989608 3.98425132,3.68694628 L3.0948786,4.6301875 L2.20655042,3.68543907 C2.41607085,3.53056754 2.66311787,3.4290127 2.93028483,3.39926912 L3.09438306,3.3901875 Z M3.09445838,1.7364375 C3.77000873,1.7364375 4.4072049,1.99939949 4.90022232,2.46369174 L5.02041172,2.58392351 L4.4701391,3.1686594 C4.10736805,2.78329205 3.61779616,2.5633125 3.09445838,2.5633125 C2.61928924,2.5633125 2.17199913,2.74468771 1.82228372,3.06631775 L1.7094214,3.17866598 L1.15543427,2.59790279 C1.66374269,2.05056928 2.35612764,1.7364375 3.09445838,1.7364375 Z M3.09445799,0.0826875 C4.18413391,0.0826875 5.20964211,0.51784662 5.99209356,1.283129 L6.14529009,1.440556 L5.59061825,2.02057249 C4.93625192,1.31416842 4.04606926,0.9095625 3.09445799,0.9095625 C2.21030815,0.9095625 1.37913465,1.2588123 0.740764697,1.87511698 L0.606973168,2.01123989 L0.0542158481,1.42916385 C0.852600484,0.573302485 1.9374048,0.0826875 3.09445799,0.0826875 Z" id="形状结合"></path>
                            </g>
                            <g id="编组" fill="#FFCD93">
                                <path d="M4.19759166,0.112755682 C5.70661585,0.112755682 7.12504487,0.724609064 8.1979894,1.79836713 L8.36449346,1.97172456 L7.80893738,2.5507701 C6.86343893,1.52669012 5.57488219,0.939630682 4.19759166,0.939630682 C2.90863397,0.939630682 1.69723127,1.4537381 0.771748752,2.35974757 L0.611438747,2.52367491 L0.0597324579,1.94048886 C1.14788529,0.778375264 2.62358695,0.112755682 4.19759166,0.112755682 Z" id="形状结合"></path>
                            </g>
                        </g>
                    </g>
                </g>
                <g id="编组-11" transform="translate(607.000000, 24.000000)">
                    <path d="M4.608,0 L46.08,0 C46.5041547,3.68933445e-15 46.848,0.343845312 46.848,0.768 L46.848,28.416 L46.848,28.416 L3.84,28.416 L3.84,0.768 C3.84,0.343845312 4.18384531,-2.80866391e-15 4.608,0 Z" id="矩形" fill="#D5D5D5"></path>
                    <path d="M6.144,1.536 L44.544,1.536 C44.9681547,1.536 45.312,1.87984531 45.312,2.304 L45.312,26.112 L45.312,26.112 L5.376,26.112 L5.376,2.304 C5.376,1.87984531 5.71984531,1.536 6.144,1.536 Z" id="矩形" fill="#EFEFEF"></path>
                    <g id="2-图标/usual/wifi-4" transform="translate(17.664000, 6.144000)" fill-rule="nonzero">
                        <g id="分组-6" transform="translate(2.408992, 4.329818)">
                            <g id="编组" transform="translate(1.313803, 2.020582)" fill="#FF801F">
                                <path d="M3.71325968,4.068225 C4.11019019,4.068225 4.47820154,4.19978127 4.78077728,4.42409506 L3.71455512,5.556225 L3.71255512,5.556225 L2.64755512,4.42275265 C2.90468301,4.23261049 3.2089315,4.10939397 3.53794894,4.07685174 L3.71325968,4.068225 Z M3.71335005,2.083725 C4.52401048,2.083725 5.28864588,2.39927939 5.88026679,2.95643009 L6.02449406,3.10070822 L5.36416691,3.80239128 C4.92884166,3.33995046 4.34135539,3.075975 3.71335005,3.075975 C3.14314708,3.075975 2.60639896,3.29362525 2.18674047,3.6795813 L2.05130568,3.81439918 L1.38652112,3.11748335 C1.99649122,2.46068314 2.82735317,2.083725 3.71335005,2.083725 Z M3.71334959,0.099225 C5.02096069,0.099225 6.25157053,0.621415944 7.19051227,1.5397548 L7.37434811,1.7286672 L6.7087419,2.42468698 C5.9235023,1.5770021 4.85528311,1.091475 3.71334959,1.091475 C2.65236978,1.091475 1.65496158,1.51057477 0.888917636,2.25014038 L0.728367802,2.41348787 L0.0650590177,1.71499662 C1.02312058,0.687962982 2.32488577,0.099225 3.71334959,0.099225 Z" id="形状结合"></path>
                            </g>
                            <g id="编组" fill="#FFCD93">
                                <path d="M5.03710999,0.135306818 C6.84793902,0.135306818 8.55005385,0.869530877 9.83758727,2.15804055 L10.0373922,2.36606947 L9.37072486,3.06092412 C8.23612672,1.83202814 6.68985863,1.12755682 5.03710999,1.12755682 C3.49036077,1.12755682 2.03667753,1.74448572 0.926098502,2.83169709 L0.733726497,3.02840989 L0.0716789495,2.32858663 C1.37746235,0.934050317 3.14830434,0.135306818 5.03710999,0.135306818 Z" id="形状结合"></path>
                            </g>
                        </g>
                    </g>
                    <path d="M1.40838098,28.416 L50.815619,28.416 C51.3106405,28.416 51.7542983,28.7215275 51.9308355,29.184 L52.0251428,29.4310559 C52.1007749,29.6291886 52.0014686,29.8511189 51.8033359,29.926751 C51.7596081,29.943443 51.7131971,29.952 51.6663918,29.952 L0.557608236,29.952 C0.345530892,29.952 0.173608236,29.7800773 0.173608236,29.568 C0.173608236,29.5211947 0.182165225,29.4747837 0.198857192,29.4310559 L0.29316451,29.184 C0.469701666,28.7215275 0.913359549,28.416 1.40838098,28.416 Z" id="矩形" fill="#C8C8C8"></path>
                    <rect id="矩形" fill="#D5D5D5" x="36.096" y="9.216" width="12.288" height="22.272"></rect>
                    <rect id="矩形" fill="#F1F1F1" x="36.864" y="9.984" width="10.752" height="20.736"></rect>
                    <g id="2-图标/usual/wifi-4" transform="translate(38.400000, 16.128000)" fill-rule="nonzero">
                        <g id="分组-6" transform="translate(1.281882, 2.304000)">
                            <g id="编组" transform="translate(0.699106, 1.075200)" fill="#FF801F">
                                <path d="M1.97591445,2.1648 C2.18724412,2.1648 2.38316868,2.23487945 2.54422552,2.35435934 L1.97685188,2.9558 L1.97285188,2.9558 L1.40785188,2.35417505 C1.53803006,2.25766503 1.69097093,2.19342129 1.85640406,2.17235615 L1.97591445,2.1648 Z M1.97596254,1.1088 C2.40733438,1.1088 2.81421519,1.27671405 3.12903085,1.57318729 L3.20577764,1.64996114 L2.85440174,2.02334351 C2.62275474,1.77726767 2.31013923,1.6368 1.97596254,1.6368 C1.67254388,1.6368 1.38692734,1.75261691 1.163617,1.95799338 L1.0915489,2.0297332 L0.73780111,1.65888759 C1.06238082,1.30938846 1.50450237,1.1088 1.97596254,1.1088 Z M1.97596229,0.0528 C2.67177349,0.0528 3.32661047,0.330670313 3.82624387,0.819340422 L3.92406732,0.919865235 L3.56988231,1.29023404 C3.15203751,0.839160603 2.58361248,0.5808 1.97596229,0.5808 C1.41138951,0.5808 0.880644709,0.803813027 0.473014373,1.19735361 L0.38758196,1.28427472 L0.0346194622,0.912590795 C0.544426976,0.366081587 1.23712742,0.0528 1.97596229,0.0528 Z" id="形状结合"></path>
                            </g>
                            <g id="编组" fill="#FFCD93">
                                <path d="M2.68036692,0.072 C3.64395243,0.072 4.54968852,0.462698214 5.2348159,1.14834509 L5.34113687,1.25904226 L4.98638723,1.62879107 C4.38264037,0.974866072 3.55983407,0.6 2.68036692,0.6 C1.8573046,0.6 1.08376491,0.92828265 0.492799203,1.50681387 L0.39043345,1.61148947 L0.0381420865,1.23909674 C0.732980723,0.497030554 1.67528818,0.072 2.68036692,0.072 Z" id="形状结合"></path>
                            </g>
                        </g>
                    </g>
                </g>
                <line x1="428.5" y1="40.5" x2="487.75" y2="40.25" id="直线-8" stroke="#FFA458" stroke-linecap="round" stroke-dasharray="2"></line>
                <line x1="534.5" y1="40.5" x2="600" y2="40" id="直线-8" stroke="#FFA458" stroke-linecap="round" stroke-dasharray="2"></line>
                <g id="无线" transform="translate(499.000000, 33.000000)">
                    <rect id="矩形" x="1.8189894e-12" y="0" width="28" height="13"></rect>
                    <g id="编组-21" transform="translate(1.000000, 2.000000)" stroke="#FFA458" stroke-linecap="round" stroke-width="1.5">
                        <path d="M18.0487805,9 C19.2300116,7.99714263 20,6.35438113 20,4.49794788 C20,2.64404495 19.2321091,1.00323168 18.0536082,0" id="路径"></path>
                        <path d="M11.7073171,8.4375 C12.5953065,7.60107319 13.1707317,6.26064674 13.1707317,4.74971075 C13.1707317,3.27620123 12.6234604,1.9648587 11.7727253,1.125" id="路径"></path>
                        <path d="M5.90814892,7.3125 C6.45691093,6.67514429 6.79797185,5.78257716 6.79797185,4.79457296 C6.79797185,3.79272234 6.44728433,2.88900254 5.88495498,2.25" id="路径"></path>
                        <path d="M0.30328495,6.1875 C0.535473466,5.77657471 0.672324806,5.27161112 0.672324806,4.72574007 C0.672324806,4.22807058 0.558574927,3.7644031 0.362534474,3.375" id="路径"></path>
                    </g>
                </g>
                <line x1="172.5" y1="40.5" x2="231.75" y2="40.25" id="直线-8" stroke="#FFA458" stroke-linecap="round" stroke-dasharray="2"></line>
                <line x1="278.5" y1="40.5" x2="344" y2="40" id="直线-8" stroke="#FFA458" stroke-linecap="round" stroke-dasharray="2"></line>
                <g id="无线" transform="translate(243.000000, 33.000000)">
                    <rect id="矩形" x="1.8189894e-12" y="0" width="28" height="13"></rect>
                    <g id="编组-21" transform="translate(1.000000, 2.000000)" stroke="#FFA458" stroke-linecap="round" stroke-width="1.5">
                        <path d="M18.0487805,9 C19.2300116,7.99714263 20,6.35438113 20,4.49794788 C20,2.64404495 19.2321091,1.00323168 18.0536082,0" id="路径"></path>
                        <path d="M11.7073171,8.4375 C12.5953065,7.60107319 13.1707317,6.26064674 13.1707317,4.74971075 C13.1707317,3.27620123 12.6234604,1.9648587 11.7727253,1.125" id="路径"></path>
                        <path d="M5.90814892,7.3125 C6.45691093,6.67514429 6.79797185,5.78257716 6.79797185,4.79457296 C6.79797185,3.79272234 6.44728433,2.88900254 5.88495498,2.25" id="路径"></path>
                        <path d="M0.30328495,6.1875 C0.535473466,5.77657471 0.672324806,5.27161112 0.672324806,4.72574007 C0.672324806,4.22807058 0.558574927,3.7644031 0.362534474,3.375" id="路径"></path>
                    </g>
                </g>
            </g>
        </g>
    </g>
</svg>